<svg width="24" height="24" viewBox="0 0 24 24" fill="none" xmlns="http://www.w3.org/2000/svg">
<path fill-rule="evenodd" clip-rule="evenodd" d="M3.05847 1.64333H20.9415C21.7231 1.64333 22.3567 2.27694 22.3567 3.05854V20.9415C22.3567 21.7231 21.7231 22.3567 20.9415 22.3567H3.05847C2.27688 22.3567 1.64327 21.7231 1.64327 20.9415V3.05854C1.64327 2.27694 2.27688 1.64333 3.05847 1.64333ZM1 3.05854C1 1.92167 1.92161 1.00006 3.05847 1.00006H20.9415C22.0783 1.00006 22.9999 1.92167 22.9999 3.05854V20.9415C22.9999 22.0784 22.0783 23 20.9415 23H3.05847C1.92161 23 1 22.0784 1 20.9415V3.05854ZM11.4667 5.05384L2.86545 19.1725H5.28071L11.4665 9.01085C11.7172 8.59913 12.3149 8.59914 12.5655 9.01085L18.7513 19.1725H21.1666L12.5654 5.05384C12.3147 4.64238 11.7173 4.64238 11.4667 5.05384ZM10.4882 12.0161C10.4882 11.6342 10.7978 11.3246 11.1798 11.3246H12.8523C13.2342 11.3246 13.5438 11.6342 13.5438 12.0161C13.5438 12.398 13.2342 12.7076 12.8523 12.7076H11.1798C10.7978 12.7076 10.4882 12.398 10.4882 12.0161Z" fill="#B32F9D"/>
</svg>
