<svg width="24" height="24" viewBox="0 0 24 24" fill="none" xmlns="http://www.w3.org/2000/svg">
<path d="M12.0761 3C16.9979 3 20.9999 7.11343 20.9999 11.9969C20.9999 16.8804 17.0041 20.991 12.0761 20.991L3.00049 21V11.8422C3.00049 6.96156 7.1488 3.00056 12.0761 3.00056V3ZM12.1645 6.42158C10.2194 6.41877 8.41776 7.43517 7.4126 9.099C6.41363 10.7544 6.37257 12.8164 7.30123 14.5129L6.29945 17.7061L9.89709 16.9006C11.9535 17.8203 14.3705 17.4074 15.9966 15.8578C17.6256 14.32 18.1442 11.9378 17.3005 9.86116C16.4511 7.77829 14.4206 6.41877 12.1706 6.42158H12.1645Z" fill="currentColor"/>
</svg>
