<svg width="24" height="24" viewBox="0 0 24 24" fill="none" xmlns="http://www.w3.org/2000/svg">
<path fill-rule="evenodd" clip-rule="evenodd" d="M17.3598 4C18.2638 4 18.9998 4.736 18.9998 5.648V20L17.2798 18.48L16.3118 17.584L15.2878 16.632L15.7118 18.112H6.63976C5.73576 18.112 4.99976 17.376 4.99976 16.464V5.648C4.99976 4.736 5.73576 4 6.63976 4H17.3598V4ZM14.2718 14.448C16.0398 14.392 16.7198 13.232 16.7198 13.232C16.7198 10.656 15.5678 8.568 15.5678 8.568C14.4158 7.704 13.3198 7.728 13.3198 7.728L13.2078 7.856C14.5678 8.272 15.1998 8.872 15.1998 8.872C14.3678 8.416 13.5518 8.192 12.7918 8.104C12.2158 8.04 11.6638 8.056 11.1758 8.12L11.0398 8.136C10.7598 8.16 10.0798 8.264 9.22376 8.64C8.92776 8.776 8.75176 8.872 8.75176 8.872C8.75176 8.872 9.41576 8.24 10.8558 7.824L10.7758 7.728C10.7758 7.728 9.67976 7.704 8.52776 8.568C8.52776 8.568 7.37576 10.656 7.37576 13.232C7.37576 13.232 8.04776 14.392 9.81576 14.448C9.81576 14.448 10.1118 14.088 10.3518 13.784C9.33576 13.48 8.95176 12.84 8.95176 12.84L9.17576 12.976L9.20776 13L9.23909 13.018L9.24842 13.022L9.27976 13.04C9.47976 13.152 9.67976 13.24 9.86376 13.312C10.1918 13.44 10.5838 13.568 11.0398 13.656C11.6398 13.768 12.3438 13.808 13.1118 13.664C13.4878 13.6 13.8718 13.488 14.2718 13.32C14.5518 13.216 14.8638 13.064 15.1918 12.848C15.1918 12.848 14.7918 13.504 13.7438 13.8C13.9838 14.104 14.2718 14.448 14.2718 14.448ZM10.5518 10.712C10.0958 10.712 9.73576 11.112 9.73576 11.6C9.73576 12.088 10.1038 12.488 10.5518 12.488C11.0078 12.488 11.3678 12.088 11.3678 11.6C11.3758 11.112 11.0078 10.712 10.5518 10.712ZM13.4718 10.712C13.0158 10.712 12.6558 11.112 12.6558 11.6C12.6558 12.088 13.0238 12.488 13.4718 12.488C13.9278 12.488 14.2878 12.088 14.2878 11.6C14.2878 11.112 13.9278 10.712 13.4718 10.712Z" fill="currentColor"/>
</svg>
