<svg width="24" height="24" viewBox="0 0 24 24" fill="none" xmlns="http://www.w3.org/2000/svg">
<path d="M12.2022 4C7.67324 4 4 7.67255 4 12.2022C4 15.8263 6.34994 18.9007 9.60965 19.9855C10.0191 20.0614 10.1517 19.8071 10.1517 19.5911V18.0641C7.87009 18.5603 7.39505 17.0962 7.39505 17.0962C7.02184 16.1482 6.48391 15.896 6.48391 15.896C5.73956 15.3868 6.54064 15.3977 6.54064 15.3977C7.36429 15.4551 7.79764 16.2432 7.79764 16.2432C8.52901 17.4968 9.71628 17.1345 10.1845 16.9247C10.2576 16.395 10.4702 16.0327 10.7053 15.8283C8.88375 15.6198 6.96853 14.9165 6.96853 11.7744C6.96853 10.8783 7.2891 10.1469 7.81336 9.57274C7.7286 9.36563 7.44768 8.53106 7.89333 7.40188C7.89333 7.40188 8.58232 7.18179 10.1496 8.24261C10.8038 8.06079 11.5051 7.96989 12.2022 7.96647C12.8994 7.96989 13.6014 8.06079 14.2569 8.24261C15.8228 7.18179 16.5105 7.40188 16.5105 7.40188C16.9568 8.53174 16.6759 9.36632 16.5911 9.57274C17.1174 10.1469 17.4353 10.8789 17.4353 11.7744C17.4353 14.9247 15.5166 15.6185 13.6903 15.8215C13.9842 16.0758 14.2528 16.5747 14.2528 17.3403V19.5911C14.2528 19.8091 14.384 20.0655 14.8003 19.9848C18.0573 18.8987 20.4045 15.8249 20.4045 12.2022C20.4045 7.67255 16.7319 4 12.2022 4Z" fill="currentColor"/>
</svg>
