<svg width="24" height="24" viewBox="0 0 24 24" fill="none" xmlns="http://www.w3.org/2000/svg">
<path d="M11.6226 4.57056L4.9458 2.21412V16.746L11.6226 14.5859V4.57056Z" fill="currentColor"/>
<path d="M11.4624 4.56326L18.3947 2.2068V16.7387L11.4624 14.5786V4.56326Z" fill="white"/>
<path d="M3.21436 19.29L11.4623 16.5409V4.56183L3.21436 7.31095V19.29Z" fill="white"/>
<path d="M15.2205 19.4714L16.3894 21.3945L17.0059 19.6081L15.2205 19.4714Z" fill="currentColor"/>
<path d="M6.01865 8.69108C5.97484 8.64807 6.07571 9.04257 6.21607 9.18452C6.46497 9.43566 6.65939 9.468 6.7629 9.47217C6.99197 9.48134 7.27465 9.41507 7.44251 9.34472C7.60494 9.27546 7.88955 9.13018 7.99728 8.91821C8.02012 8.87287 8.08247 8.79677 8.04331 8.60881C8.0136 8.46419 7.92155 8.4136 7.8093 8.4216C7.69706 8.42918 7.35725 8.51979 7.1929 8.57038C7.02847 8.62023 6.68981 8.72333 6.54221 8.75534C6.39496 8.78726 6.07033 8.7405 6.01865 8.69108Z" fill="currentColor"/>
<path d="M10.1804 13.4076C10.1154 13.384 8.77069 12.8269 8.58007 12.7357C8.42409 12.6606 8.04162 12.4989 7.86167 12.4255C8.36854 11.6439 8.68851 11.0542 8.73111 10.9643C8.80992 10.8 9.34643 9.75013 9.35896 9.68551C9.37113 9.62002 9.38637 9.37808 9.37456 9.32056C9.36276 9.26195 9.16605 9.37464 8.89897 9.46521C8.63147 9.55539 8.12308 9.88603 7.92673 9.92745C7.72967 9.96855 7.09989 10.2071 6.77762 10.314C6.45536 10.421 5.84576 10.6071 5.595 10.6748C5.34389 10.7425 5.1247 10.7478 4.98426 10.7904C4.98426 10.7904 5.00294 10.9872 5.04024 11.0461C5.07711 11.1051 5.20996 11.2497 5.36443 11.2901C5.51891 11.3307 5.7746 11.3145 5.89107 11.2878C6.00747 11.2608 6.20911 11.1622 6.23617 11.1193C6.26351 11.0755 6.22206 10.9408 6.26809 10.9001C6.31455 10.8597 6.9283 10.7163 7.16001 10.6463C7.39172 10.5751 8.27871 10.2696 8.39897 10.2851C8.36088 10.4115 7.64742 11.8247 7.41764 12.2463C7.18778 12.6678 5.85263 14.5225 5.56837 14.8493C5.35263 15.0978 4.82979 15.7336 4.64868 15.877C4.69435 15.8896 5.01812 15.8619 5.07711 15.8254C5.44468 15.5989 6.05692 14.8368 6.25406 14.6047C6.84004 13.9175 7.35486 13.1956 7.76309 12.5762H7.76353C7.84305 12.6093 8.48608 13.1332 8.65387 13.2493C8.82166 13.3654 9.4838 13.7348 9.62725 13.7961C9.77071 13.8581 10.322 14.1123 10.3452 14.0262C10.3684 13.9395 10.2455 13.4323 10.1804 13.4076Z" fill="currentColor"/>
<path fill-rule="evenodd" clip-rule="evenodd" d="M7.07264 20.411C7.20149 20.4897 7.32318 20.5541 7.45919 20.6185C7.7312 20.7545 8.03899 20.8977 8.33248 21.0051C8.73334 21.1554 9.13419 21.2771 9.53505 21.3701C9.75696 21.4202 10.0003 21.4632 10.2365 21.499C10.258 21.499 10.8951 21.5777 11.024 21.5777H11.6682C11.9187 21.5562 12.155 21.5419 12.4054 21.5061C12.6059 21.4775 12.8278 21.4417 13.0425 21.3916C13.2 21.3558 13.3647 21.32 13.5222 21.2699C13.6725 21.227 13.8442 21.1697 14.0089 21.1124C14.1163 21.0766 14.2308 21.0265 14.3453 20.9836C14.4384 20.9406 14.5529 20.8905 14.6603 20.8476C14.7892 20.7903 14.9395 20.7116 15.0826 20.64C15.1972 20.5827 15.326 20.5112 15.4477 20.4396C15.5407 20.3895 15.7555 20.2249 15.87 20.2249C15.9989 20.2249 16.0848 20.3394 16.0848 20.4396C16.0848 20.6472 15.8056 20.7116 15.6767 20.8046C15.5407 20.8977 15.3761 20.9693 15.233 21.048C14.9466 21.1983 14.6531 21.3272 14.374 21.4345C14.0089 21.5705 13.6081 21.6994 13.2501 21.7853C13.1141 21.8139 12.9781 21.8497 12.8422 21.8712C12.7705 21.8855 12.0261 22 11.8185 22H10.8736C10.6231 21.9785 10.3582 21.9499 10.1077 21.9141C9.8858 21.8783 9.64958 21.8354 9.42768 21.7853C9.25589 21.7495 9.06977 21.6994 8.90513 21.6493C8.61881 21.5705 8.33964 21.4703 8.06763 21.363C7.57372 21.1768 7.05832 20.9335 6.57157 20.6114C6.48568 20.5541 6.47852 20.4969 6.47852 20.4324C6.47852 20.3251 6.55725 20.2249 6.6861 20.2249C6.80063 20.2249 7.0297 20.3895 7.07264 20.411Z" fill="currentColor"/>
<path fill-rule="evenodd" clip-rule="evenodd" d="M11.6758 4.53451V16.5604C11.6686 16.5962 11.6543 16.632 11.6257 16.6678C11.6114 16.6892 11.5828 16.7179 11.5613 16.725C11.3823 16.7966 3.32212 19.5024 3.21475 19.5024C3.12885 19.5024 3.05011 19.4452 3.00716 19.3521C3.00716 19.345 3 19.3378 3 19.3235V7.2905C3.01432 7.25467 3.02147 7.20455 3.05011 7.17597C3.10737 7.09717 3.20759 7.08288 3.27201 7.06144C3.3937 7.01847 11.3322 4.35557 11.4467 4.35557C11.5183 4.35557 11.6758 4.40569 11.6758 4.53451ZM11.2391 16.3814L3.43665 18.9799V7.46945L11.2391 4.87096V16.3814Z" fill="currentColor"/>
<path fill-rule="evenodd" clip-rule="evenodd" d="M18.6123 2.22887V16.71C18.6052 16.8746 18.4906 16.9462 18.3833 16.9462C18.2903 16.9462 17.6174 16.7172 17.5028 16.6814C16.6009 16.4022 15.6918 16.123 14.797 15.8439C14.5966 15.7794 14.389 15.715 14.1957 15.6506C14.0239 15.6005 13.8378 15.5432 13.666 15.4859C12.9001 15.2497 12.1198 15.0135 11.3539 14.7558C11.3252 14.7486 11.2537 14.6484 11.2537 14.6269V4.51232C11.268 4.47649 11.2823 4.43355 11.3181 4.40496C11.3754 4.34054 13.8306 3.52446 14.797 3.20237C15.0547 3.10937 18.283 1.99979 18.3833 1.99979C18.5121 1.99979 18.6123 2.09279 18.6123 2.22887ZM18.1757 16.438L11.6832 14.4194V4.71993L18.1757 2.51513V16.438Z" fill="currentColor"/>
<path d="M20.26 19.4723L11.5864 16.7077L11.6227 4.67256L20.26 7.42165V19.4723Z" fill="currentColor"/>
<path fill-rule="evenodd" clip-rule="evenodd" d="M15.3766 8.10746L16.4941 8.44597L18.5299 15.7833L17.382 15.4351L16.9697 13.9288L14.5977 13.2098L14.0876 14.4369L12.9395 14.0885L15.3766 8.10746ZM15.8875 10.0499L15.0361 12.1077L16.6013 12.5821L15.8875 10.0499Z" fill="white"/>
</svg>
