<svg width="24" height="24" viewBox="0 0 24 24" fill="none" xmlns="http://www.w3.org/2000/svg">
<g clip-path="url(#clip0)">
<path d="M22.6436 1.10779L13.459 7.92933L15.1574 3.90471L22.6436 1.10779Z" fill="#E2761B" stroke="#E2761B" stroke-width="0.615385" stroke-linecap="round" stroke-linejoin="round"/>
<path d="M1.43945 1.10779L10.5502 7.99394L8.93484 3.90471L1.43945 1.10779Z" fill="#E4761B" stroke="#E4761B" stroke-width="0.615385" stroke-linecap="round" stroke-linejoin="round"/>
<path d="M19.3387 16.92L16.8926 20.6677L22.1264 22.1077L23.631 17.0031L19.3387 16.92Z" fill="#E4761B" stroke="#E4761B" stroke-width="0.615385" stroke-linecap="round" stroke-linejoin="round"/>
<path d="M0.470703 17.0031L1.96609 22.1077L7.19993 20.6677L4.75378 16.92L0.470703 17.0031Z" fill="#E4761B" stroke="#E4761B" stroke-width="0.615385" stroke-linecap="round" stroke-linejoin="round"/>
<path d="M6.90377 10.5878L5.44531 12.7939L10.6422 13.0247L10.4576 7.44006L6.90377 10.5878Z" fill="#E4761B" stroke="#E4761B" stroke-width="0.615385" stroke-linecap="round" stroke-linejoin="round"/>
<path d="M17.179 10.5878L13.579 7.37549L13.459 13.0247L18.6467 12.7939L17.179 10.5878Z" fill="#E4761B" stroke="#E4761B" stroke-width="0.615385" stroke-linecap="round" stroke-linejoin="round"/>
<path d="M7.19922 20.6677L10.3192 19.1447L7.62383 17.04L7.19922 20.6677Z" fill="#E4761B" stroke="#E4761B" stroke-width="0.615385" stroke-linecap="round" stroke-linejoin="round"/>
<path d="M13.7637 19.1447L16.8929 20.6677L16.4591 17.04L13.7637 19.1447Z" fill="#E4761B" stroke="#E4761B" stroke-width="0.615385" stroke-linecap="round" stroke-linejoin="round"/>
<path d="M16.8929 20.6679L13.7637 19.1448L14.0129 21.1848L13.9852 22.0432L16.8929 20.6679Z" fill="#D7C1B3" stroke="#D7C1B3" stroke-width="0.615385" stroke-linecap="round" stroke-linejoin="round"/>
<path d="M7.20117 20.6679L10.1089 22.0432L10.0904 21.1848L10.3212 19.1448L7.20117 20.6679Z" fill="#D7C1B3" stroke="#D7C1B3" stroke-width="0.615385" stroke-linecap="round" stroke-linejoin="round"/>
<path d="M10.1539 15.6925L7.55078 14.9263L9.3877 14.0863L10.1539 15.6925Z" fill="#233447" stroke="#233447" stroke-width="0.615385" stroke-linecap="round" stroke-linejoin="round"/>
<path d="M13.9297 15.6925L14.6958 14.0863L16.542 14.9263L13.9297 15.6925Z" fill="#233447" stroke="#233447" stroke-width="0.615385" stroke-linecap="round" stroke-linejoin="round"/>
<path d="M7.20006 20.6679L7.64314 16.9202L4.75391 17.0032L7.20006 20.6679Z" fill="#CD6116" stroke="#CD6116" stroke-width="0.615385" stroke-linecap="round" stroke-linejoin="round"/>
<path d="M16.4492 16.9202L16.8923 20.6679L19.3384 17.0032L16.4492 16.9202Z" fill="#CD6116" stroke="#CD6116" stroke-width="0.615385" stroke-linecap="round" stroke-linejoin="round"/>
<path d="M18.6467 12.7939L13.459 13.0247L13.939 15.6924L14.7051 14.0863L16.5513 14.9263L18.6467 12.7939Z" fill="#CD6116" stroke="#CD6116" stroke-width="0.615385" stroke-linecap="round" stroke-linejoin="round"/>
<path d="M7.54993 14.9263L9.39608 14.0863L10.153 15.6924L10.6422 13.0247L5.44531 12.7939L7.54993 14.9263Z" fill="#CD6116" stroke="#CD6116" stroke-width="0.615385" stroke-linecap="round" stroke-linejoin="round"/>
<path d="M5.44727 12.7939L7.62572 17.0401L7.55188 14.9263L5.44727 12.7939Z" fill="#E4751F" stroke="#E4751F" stroke-width="0.615385" stroke-linecap="round" stroke-linejoin="round"/>
<path d="M16.5513 14.9263L16.459 17.0401L18.6467 12.7939L16.5513 14.9263Z" fill="#E4751F" stroke="#E4751F" stroke-width="0.615385" stroke-linecap="round" stroke-linejoin="round"/>
<path d="M10.6435 13.0248L10.1543 15.6925L10.7635 18.8402L10.902 14.6955L10.6435 13.0248Z" fill="#E4751F" stroke="#E4751F" stroke-width="0.615385" stroke-linecap="round" stroke-linejoin="round"/>
<path d="M13.4602 13.0248L13.2109 14.6863L13.3217 18.8402L13.9402 15.6925L13.4602 13.0248Z" fill="#E4751F" stroke="#E4751F" stroke-width="0.615385" stroke-linecap="round" stroke-linejoin="round"/>
<path d="M13.9388 15.6923L13.3203 18.84L13.7634 19.1446L16.4588 17.04L16.5511 14.9261L13.9388 15.6923Z" fill="#F6851B" stroke="#F6851B" stroke-width="0.615385" stroke-linecap="round" stroke-linejoin="round"/>
<path d="M7.55078 14.9261L7.62463 17.04L10.32 19.1446L10.7631 18.84L10.1539 15.6923L7.55078 14.9261Z" fill="#F6851B" stroke="#F6851B" stroke-width="0.615385" stroke-linecap="round" stroke-linejoin="round"/>
<path d="M13.9858 22.0432L14.0135 21.1848L13.7827 20.9817H10.3027L10.0904 21.1848L10.1089 22.0432L7.20117 20.6678L8.21656 21.4986L10.275 22.9294H13.8104L15.8781 21.4986L16.8935 20.6678L13.9858 22.0432Z" fill="#C0AD9E" stroke="#C0AD9E" stroke-width="0.615385" stroke-linecap="round" stroke-linejoin="round"/>
<path d="M13.7637 19.1447L13.3206 18.8401H10.7637L10.3206 19.1447L10.0898 21.1847L10.3022 20.9816H13.7822L14.0129 21.1847L13.7637 19.1447Z" fill="#161616" stroke="#161616" stroke-width="0.615385" stroke-linecap="round" stroke-linejoin="round"/>
<path d="M23.0314 8.3724L23.816 4.60625L22.6437 1.10779L13.7637 7.69856L17.1791 10.5878L22.0068 12.0001L23.0775 10.7539L22.616 10.4216L23.3544 9.74779L22.7821 9.30471L23.5206 8.74163L23.0314 8.3724Z" fill="#763D16" stroke="#763D16" stroke-width="0.615385" stroke-linecap="round" stroke-linejoin="round"/>
<path d="M0.277344 4.60625L1.06196 8.3724L0.563498 8.74163L1.30196 9.30471L0.738882 9.74779L1.47734 10.4216L1.01581 10.7539L2.07734 12.0001L6.90504 10.5878L10.3204 7.69856L1.44042 1.10779L0.277344 4.60625Z" fill="#763D16" stroke="#763D16" stroke-width="0.615385" stroke-linecap="round" stroke-linejoin="round"/>
<path d="M22.0067 12.0002L17.179 10.5879L18.6467 12.794L16.459 17.0402L19.339 17.0033H23.6313L22.0067 12.0002Z" fill="#F6851B" stroke="#F6851B" stroke-width="0.615385" stroke-linecap="round" stroke-linejoin="round"/>
<path d="M6.90455 10.5879L2.07686 12.0002L0.470703 17.0033H4.75378L7.62455 17.0402L5.44609 12.794L6.90455 10.5879Z" fill="#F6851B" stroke="#F6851B" stroke-width="0.615385" stroke-linecap="round" stroke-linejoin="round"/>
<path d="M13.4586 13.0247L13.7632 7.69851L15.1663 3.90466H8.93555L10.3202 7.69851L10.6432 13.0247L10.754 14.7047L10.7632 18.84H13.3202L13.3386 14.7047L13.4586 13.0247Z" fill="#F6851B" stroke="#F6851B" stroke-width="0.615385" stroke-linecap="round" stroke-linejoin="round"/>
</g>
<defs>
<clipPath id="clip0">
<rect width="24" height="24" fill="white"/>
</clipPath>
</defs>
</svg>
