<svg width="18" height="18" viewBox="0 0 18 18" fill="none" xmlns="http://www.w3.org/2000/svg">
<path d="M2 8H8V2H2V8ZM3.5 3.5H6.5V6.5H3.5V3.5Z" fill="currentColor"/>
<path d="M2 15.5H8V9.5H2V15.5ZM3.5 11H6.5V14H3.5V11Z" fill="currentColor"/>
<path d="M9.5 2V8H15.5V2H9.5ZM14 6.5H11V3.5H14V6.5Z" fill="currentColor"/>
<path d="M15.5 14H14V15.5H15.5V14Z" fill="currentColor"/>
<path d="M11 9.5H9.5V11H11V9.5Z" fill="currentColor"/>
<path d="M12.5 11H11V12.5H12.5V11Z" fill="currentColor"/>
<path d="M11 12.5H9.5V14H11V12.5Z" fill="currentColor"/>
<path d="M12.5 14H11V15.5H12.5V14Z" fill="currentColor"/>
<path d="M14 12.5H12.5V14H14V12.5Z" fill="currentColor"/>
<path d="M14 9.5H12.5V11H14V9.5Z" fill="currentColor"/>
<path d="M15.5 11H14V12.5H15.5V11Z" fill="currentColor"/>
</svg>
