<svg width="24" height="24" viewBox="0 0 24 24" fill="none" xmlns="http://www.w3.org/2000/svg">
<path d="M13.885 15.0709C13.4818 15.474 12.6178 15.618 12.0022 15.618C11.3848 15.618 10.5226 15.474 10.1194 15.0709C10.024 14.9754 9.87099 14.9754 9.77568 15.0709C9.68024 15.1663 9.68024 15.3193 9.77568 15.4146C10.4147 16.0536 11.6423 16.104 12.0022 16.104C12.3621 16.104 13.5879 16.0536 14.2289 15.4146C14.3224 15.3191 14.3224 15.1662 14.2289 15.0709C14.1334 14.9754 13.9804 14.9754 13.885 15.0709Z" fill="currentColor"/>
<path d="M10.8747 12.9378C10.8747 12.4212 10.4535 12 9.93684 12C9.42035 12 8.99902 12.4212 8.99902 12.9378C8.99902 13.4543 9.42035 13.8756 9.93684 13.8756C10.4535 13.8756 10.8747 13.4545 10.8747 12.9378Z" fill="currentColor"/>
<path d="M12 3C7.0302 3 3 7.0302 3 12C3 16.9698 7.0302 21 12 21C16.9698 21 21 16.9698 21 12C21 7.0302 16.9698 3 12 3ZM17.2218 13.2005C17.2416 13.3302 17.2524 13.4616 17.2524 13.5948C17.2524 15.6144 14.9016 17.2506 12.0018 17.2506C9.10194 17.2506 6.75114 15.6144 6.75114 13.5948C6.75114 13.4598 6.76199 13.3266 6.78177 13.197C6.3246 12.9918 6.006 12.5328 6.006 12C6.006 11.2764 6.5928 10.6878 7.31818 10.6878C7.67097 10.6878 7.98958 10.8264 8.22537 11.0533C9.13614 10.3963 10.3963 9.97673 11.7984 9.94075C11.7984 9.92276 12.4536 6.80154 12.4536 6.80154C12.4662 6.74043 12.5022 6.68811 12.5544 6.65405C12.6066 6.61986 12.6696 6.60901 12.7309 6.62164L14.9125 7.08595C15.0655 6.77641 15.3804 6.56218 15.7494 6.56218C16.2678 6.56218 16.6872 6.98158 16.6872 7.5C16.6872 8.01842 16.2678 8.43782 15.7494 8.43782C15.2471 8.43782 14.8404 8.04176 14.817 7.54504L12.8639 7.12921L12.2664 9.94267C13.6434 9.99115 14.8801 10.4088 15.7764 11.0568C16.0122 10.8283 16.3326 10.6878 16.6872 10.6878C17.4127 10.6878 17.9994 11.2746 17.9994 12C17.9994 12.5364 17.6772 12.9954 17.2218 13.2005Z" fill="currentColor"/>
<path d="M14.0628 12C13.5462 12 13.125 12.4212 13.125 12.9378C13.125 13.4543 13.5462 13.8756 14.0628 13.8756C14.5793 13.8756 15.0006 13.4543 15.0006 12.9378C15.0006 12.4212 14.5795 12 14.0628 12Z" fill="currentColor"/>
</svg>
