<svg width="24" height="24" viewBox="0 0 24 24" fill="none" xmlns="http://www.w3.org/2000/svg">
<path d="M15.4999 14.0006H14.7099L14.4299 13.7306C15.6299 12.3306 16.2499 10.4206 15.9099 8.39063C15.4399 5.61063 13.1199 3.39063 10.3199 3.05063C6.08989 2.53063 2.52989 6.09063 3.04989 10.3206C3.38989 13.1206 5.60989 15.4406 8.38989 15.9106C10.4199 16.2506 12.3299 15.6306 13.7299 14.4306L13.9999 14.7106V15.5006L18.2499 19.7506C18.6599 20.1606 19.3299 20.1606 19.7399 19.7506C20.1499 19.3406 20.1499 18.6706 19.7399 18.2606L15.4999 14.0006ZM9.49989 14.0006C7.00989 14.0006 4.99989 11.9906 4.99989 9.50063C4.99989 7.01063 7.00989 5.00063 9.49989 5.00063C11.9899 5.00063 13.9999 7.01063 13.9999 9.50063C13.9999 11.9906 11.9899 14.0006 9.49989 14.0006Z" fill="currentColor"/>
</svg>
