<svg width="24" height="24" viewBox="0 0 24 24" fill="none" xmlns="http://www.w3.org/2000/svg">
<path d="M12.0017 3C7.00191 3 3.98796 6.08219 3.22079 9.13663C2.42437 12.3043 3.81548 15.3393 6.86167 17.1526C6.18449 19.6093 5.77428 20.4342 6.42147 20.8759C7.14739 21.3724 8.19279 20.3458 9.93936 19.0056L10.657 18.4559C13.4685 18.8204 16.3325 18.0112 18.3603 16.2714C20.0626 14.8106 21 12.857 21 10.7715C21.0007 6.48565 16.9639 3 12.0017 3ZM17.6291 15.4172C15.7888 16.9966 13.1558 17.7038 10.5888 17.3101C10.2296 17.2523 8.64499 18.6397 7.35512 19.5381C7.50061 18.9869 7.78558 18.0592 8.0623 17.0236C8.1298 16.7716 8.01506 16.5061 7.78483 16.3832C4.38992 14.5601 3.76373 11.5866 4.31043 9.4111C4.97336 6.78037 7.60785 4.12489 12.0017 4.12489C16.3437 4.12489 19.8759 7.10659 19.8759 10.7707C19.8759 12.524 19.0779 14.1739 17.6291 15.4172Z" fill="currentColor"/>
<path d="M7.87709 8.81195H5.62732C4.88339 8.81195 4.88264 9.93683 5.62732 9.93683H6.18976V13.124C6.18976 13.8679 7.31464 13.8687 7.31464 13.124V9.93683H7.87709C8.62101 9.93683 8.62176 8.81195 7.87709 8.81195Z" fill="currentColor"/>
<path d="M10.6489 9.16588C10.6481 9.16363 10.6459 9.16288 10.6451 9.16063C10.4607 8.71442 9.80073 8.69342 9.60799 9.16063C9.60724 9.16213 9.60575 9.16363 9.605 9.16588L8.10515 12.9155C7.98966 13.2035 8.12989 13.5312 8.41861 13.6467C9.13704 13.9361 9.26528 12.9185 9.45801 12.5623H10.7966L11.1048 13.3332C11.3801 14.0231 12.4277 13.6084 12.1495 12.9155L10.6489 9.16588ZM9.90796 11.4366L10.1269 10.8884L10.3459 11.4366H9.90796Z" fill="currentColor"/>
<path d="M14.6265 12.5616H13.6891V9.37439C13.6891 8.63046 12.5642 8.62971 12.5642 9.37439V13.124C12.5642 13.4345 12.8162 13.6864 13.1267 13.6864H14.6265C15.3704 13.6864 15.3712 12.5616 14.6265 12.5616Z" fill="currentColor"/>
<path d="M16.6886 10.2661V9.3744C16.6886 8.63047 15.5637 8.62972 15.5637 9.3744V13.124C15.5637 13.8679 16.6886 13.8687 16.6886 13.124V12.0224C17.8922 13.3317 17.9312 13.6865 18.3759 13.6865C18.8484 13.6865 19.1191 13.1263 18.8027 12.7573L17.41 11.1352L18.7772 9.7681C18.7787 9.76585 18.7809 9.76436 18.7824 9.76211C18.7832 9.76136 18.7839 9.76061 18.7847 9.75986C19.2954 9.23041 18.5049 8.44974 17.9822 8.97244L16.6886 10.2661Z" fill="currentColor"/>
</svg>
