<svg width="24" height="24" viewBox="0 0 24 24" fill="none" xmlns="http://www.w3.org/2000/svg">
<path fill-rule="evenodd" clip-rule="evenodd" d="M12.9779 12.0148C12.9779 14.4191 11.042 16.3681 8.65416 16.3681C6.26631 16.3681 4.33032 14.4191 4.33032 12.0148C4.33032 9.61046 6.26616 7.66125 8.65416 7.66125C11.0422 7.66125 12.9779 9.61046 12.9779 12.0148ZM17.7211 12.0148C17.7211 14.278 16.7531 16.1133 15.5591 16.1133C14.3651 16.1133 13.3972 14.278 13.3972 12.0148C13.3972 9.75168 14.365 7.91632 15.559 7.91632C16.753 7.91632 17.7209 9.7511 17.7209 12.0148H17.7211ZM18.9008 15.6864C19.3208 15.6864 19.6612 14.042 19.6612 12.0148C19.6612 9.98701 19.3207 8.3432 18.9008 8.3432C18.481 8.3432 18.1406 9.98715 18.1406 12.0148C18.1406 14.0425 18.4808 15.6864 18.9008 15.6864Z" fill="currentColor"/>
</svg>
