<svg width="25" height="24" viewBox="0 0 25 24" fill="none" xmlns="http://www.w3.org/2000/svg">
<g clip-path="url(#clip0)">
<path d="M5.4133 7.50597C9.32718 3.67395 15.6728 3.67395 19.5867 7.50597L20.0578 7.96716C20.2535 8.15876 20.2535 8.46941 20.0578 8.66101L18.4464 10.2386C18.3486 10.3344 18.1899 10.3344 18.0921 10.2386L17.4439 9.604C14.7135 6.93068 10.2866 6.93068 7.55614 9.604L6.86196 10.2837C6.76412 10.3795 6.60547 10.3795 6.50763 10.2837L4.89629 8.70602C4.70059 8.51442 4.70059 8.20377 4.89629 8.01217L5.4133 7.50597ZM22.9191 10.7687L24.3532 12.1728C24.5489 12.3644 24.5489 12.675 24.3532 12.8666L17.8868 19.1979C17.6911 19.3895 17.3738 19.3895 17.1781 19.1979C17.1781 19.1979 17.1781 19.1979 17.1781 19.1979L12.5886 14.7044C12.5397 14.6565 12.4604 14.6565 12.4115 14.7044C12.4115 14.7044 12.4115 14.7044 12.4115 14.7044L7.82207 19.1979C7.62638 19.3895 7.30909 19.3895 7.1134 19.1979C7.1134 19.1979 7.1134 19.1979 7.1134 19.1979L0.646771 12.8666C0.451076 12.675 0.451076 12.3643 0.646771 12.1727L2.08087 10.7686C2.27656 10.577 2.59385 10.577 2.78954 10.7686L7.3791 15.2622C7.42802 15.3101 7.50734 15.3101 7.55626 15.2622C7.55626 15.2622 7.55626 15.2622 7.55626 15.2622L12.1456 10.7686C12.3413 10.577 12.6586 10.577 12.8543 10.7686C12.8543 10.7686 12.8543 10.7686 12.8543 10.7686L17.4438 15.2622C17.4927 15.3101 17.5721 15.3101 17.621 15.2622L22.2105 10.7687C22.4062 10.5771 22.7234 10.5771 22.9191 10.7687Z" fill="#3B99FC"/>
</g>
<defs>
<clipPath id="clip0">
<rect width="24" height="24" fill="white" transform="translate(0.5)"/>
</clipPath>
</defs>
</svg>
