<svg width="24" height="24" viewBox="0 0 24 24" fill="none" xmlns="http://www.w3.org/2000/svg">
<path fill-rule="evenodd" clip-rule="evenodd" d="M19.1265 17.921C20.2695 17.0923 21 15.8675 21 14.5055C21 12.011 18.5723 9.98825 15.5782 9.98825C12.5842 9.98825 10.1565 12.011 10.1565 14.5055C10.1565 17.0007 12.5842 19.0235 15.5782 19.0235C16.197 19.0235 16.794 18.9358 17.3483 18.776L17.5072 18.752C17.6115 18.752 17.706 18.7842 17.7952 18.8352L18.9825 19.5208L19.0868 19.5545C19.1865 19.5545 19.2675 19.4735 19.2675 19.3738L19.2382 19.2417L18.9938 18.3305L18.975 18.215C18.975 18.0935 19.035 17.9863 19.1265 17.921ZM9.50625 5C5.913 5 3 7.427 3 10.4218C3 12.0553 3.876 13.526 5.24775 14.5197C5.358 14.5977 5.43 14.7268 5.43 14.873L5.4075 15.011L5.11425 16.1045L5.079 16.2627C5.079 16.3827 5.1765 16.4803 5.29575 16.4803L5.42175 16.4397L6.846 15.617C6.9525 15.5555 7.06575 15.5173 7.191 15.5173L7.38225 15.5457C8.04675 15.737 8.76375 15.8435 9.50625 15.8435L9.86325 15.8345C9.72225 15.4115 9.645 14.966 9.645 14.5063C9.645 11.7755 12.3015 9.5615 15.5782 9.5615L15.9315 9.5705C15.4418 6.98075 12.7515 5 9.50625 5ZM13.7708 13.7833C13.3717 13.7833 13.0485 13.4592 13.0485 13.0602C13.0485 12.6605 13.3717 12.3372 13.7708 12.3372C14.1705 12.3372 14.4937 12.6605 14.4937 13.0602C14.4937 13.4592 14.1705 13.7833 13.7708 13.7833ZM17.3857 13.7833C16.986 13.7833 16.6627 13.4592 16.6627 13.0602C16.6627 12.6605 16.986 12.3372 17.3857 12.3372C17.7847 12.3372 18.108 12.6605 18.108 13.0602C18.108 13.4592 17.7847 13.7833 17.3857 13.7833ZM7.33725 9.554C6.858 9.554 6.47025 9.1655 6.47025 8.687C6.47025 8.20775 6.858 7.81925 7.33725 7.81925C7.8165 7.81925 8.205 8.20775 8.205 8.687C8.205 9.1655 7.8165 9.554 7.33725 9.554ZM11.6745 9.554C11.1952 9.554 10.8075 9.1655 10.8075 8.687C10.8075 8.20775 11.1952 7.81925 11.6745 7.81925C12.1538 7.81925 12.5422 8.20775 12.5422 8.687C12.5422 9.1655 12.1538 9.554 11.6745 9.554Z" fill="currentColor"/>
</svg>
