<svg width="24" height="24" viewBox="0 0 24 24" fill="none" xmlns="http://www.w3.org/2000/svg">
<path d="M20.9826 9.25342C21.0599 10.2397 20.8904 11.4216 20.2281 11.4801C19.1466 11.5754 19.7106 10.4039 19.7249 9.69891C19.7646 7.65519 17.9909 6.23546 16.2532 6.23546C15.7612 6.23546 14.6174 6.56396 14.7937 5.54247C14.8732 5.09248 15.2609 5.09848 15.6487 5.04748C18.5714 4.66499 20.7771 6.64121 20.9826 9.25342Z" fill="currentColor"/>
<path d="M16.203 11.6279C17.4592 12.3036 18.9682 12.6404 18.7184 14.6458C18.2579 18.3425 10.4281 20.8257 5.53737 18.1093C4.19639 17.3638 2.80816 16.2733 3.02191 14.1013C3.2064 12.2316 4.48439 10.7834 5.73912 9.54966C6.9361 8.37217 8.19758 7.45119 9.91431 7.02669C11.7773 6.5662 12.3278 8.09318 11.826 9.59916C12.9053 9.52791 15.192 8.34367 16.203 9.50016C16.6485 10.0102 16.4782 10.9229 16.203 11.6279ZM14.8447 16.3776C15.2475 15.9291 15.6517 15.2451 15.6495 14.4486C15.642 11.1524 9.92331 10.4166 6.7951 12.2219C3.2349 14.2768 4.73788 17.9698 9.10957 18.2578C11.4255 18.4108 13.7438 17.6068 14.8447 16.3776Z" fill="currentColor"/>
<path d="M17.9639 10.6881C17.2311 10.7361 17.5049 10.1947 17.4606 9.55041C17.4329 9.15367 17.0984 8.69543 16.8066 8.56043C16.2344 8.29643 15.3479 8.75242 15.3479 7.96719C15.3479 7.3837 15.8624 7.44445 16.1534 7.4227C18.8196 7.2232 18.9846 10.6214 17.9639 10.6881Z" fill="currentColor"/>
<path d="M12.6316 14.2011C13.7033 17.3871 8.11891 18.8683 7.09742 16.1308C6.41418 14.3001 8.05516 12.8436 9.76363 12.6674C11.2224 12.5166 12.3098 13.2486 12.6316 14.2011ZM10.0651 14.7456C10.2924 15.1326 10.8151 14.8544 10.7694 14.5476C10.7146 14.1929 10.0606 14.2454 10.0651 14.7456ZM9.15989 16.4278C10.0989 16.2081 10.2249 14.4689 8.8074 14.7951C7.61717 15.0681 7.84741 16.7346 9.15989 16.4278Z" fill="currentColor"/>
</svg>
