<?xml version="1.0" encoding="UTF-8" standalone="no"?>
<svg width="24" height="24" viewBox="0 0 24 24" fill="none">

  <path
    d="M21.2771 7.19053C21.0624 6.32829 20.4299 5.64921 19.6268 5.41876C18.1711 5 12.3338 5 12.3338 5C12.3338 5 6.49662 5 5.04088 5.41876C4.23776 5.64925 3.60523 6.32829 3.39055 7.19053C3.00049 8.75339 3.00049 12.0141 3.00049 12.0141C3.00049 12.0141 3.00049 15.2749 3.39055 16.8378C3.60523 17.7 4.23776 18.3508 5.04088 18.5812C6.49662 19 12.3338 19 12.3338 19C12.3338 19 18.171 19 19.6268 18.5812C20.4299 18.3508 21.0624 17.7 21.2771 16.8378C21.6672 15.2749 21.6672 12.0141 21.6672 12.0141C21.6672 12.0141 21.6672 8.75339 21.2771 7.19053ZM10.4247 14.9747V9.05362L15.3035 12.0142L10.4247 14.9747Z"
    fill="currentColor" id="path2" style="fill:currentColor;fill-opacity:1" />
</svg>