<?xml version="1.0" encoding="utf-8"?><svg xmlns="http://www.w3.org/2000/svg" xmlns:xlink="http://www.w3.org/1999/xlink"><symbol fill="none" viewBox="0 0 24 24" id="add" xmlns="http://www.w3.org/2000/svg"><path fill-rule="evenodd" clip-rule="evenodd" d="M12 19a7 7 0 100-14 7 7 0 000 14zm0 2a9 9 0 100-18 9 9 0 000 18zm-1-10V8h2v3h3v2h-3v3h-2v-3H8v-2h3z" fill="currentColor"/></symbol><symbol fill="none" viewBox="0 0 24 24" id="arkane" xmlns="http://www.w3.org/2000/svg"><path fill-rule="evenodd" clip-rule="evenodd" d="M3.058 1.643h17.884c.781 0 1.415.634 1.415 1.416v17.883c0 .781-.634 1.415-1.415 1.415H3.058a1.415 1.415 0 01-1.415-1.415V3.059c0-.782.634-1.416 1.415-1.416zM1 3.06C1 1.922 1.922 1 3.058 1h17.884C22.078 1 23 1.922 23 3.06v17.883A2.058 2.058 0 0120.942 23H3.058A2.058 2.058 0 011 20.942V3.059zm10.467 1.995L2.865 19.172h2.416l6.186-10.161a.643.643 0 011.098 0l6.186 10.162h2.416l-8.602-14.12a.643.643 0 00-1.098 0zm-.979 6.962c0-.382.31-.691.692-.691h1.672a.692.692 0 010 1.383H11.18a.692.692 0 01-.692-.692z" fill="#B32F9D"/></symbol><symbol fill="none" viewBox="0 0 24 24" id="arrow_back" xmlns="http://www.w3.org/2000/svg"><path d="M4.5 12h15m-15 0l7 7m-7-7l7-7" stroke="currentColor" stroke-width="2"/></symbol><symbol fill="none" viewBox="0 0 24 24" id="arrow_bottom" xmlns="http://www.w3.org/2000/svg"><path d="M12 19.5v-15m0 15l7-7m-7 7l-7-7" stroke="currentColor" stroke-width="2"/></symbol><symbol fill="none" viewBox="0 0 24 24" id="arrow_downward" xmlns="http://www.w3.org/2000/svg"><path d="M12 19.5v-15m0 15l7-7m-7 7l-7-7" stroke="currentColor" stroke-width="2"/></symbol><symbol fill="none" viewBox="0 0 24 24" id="arrow_forward" xmlns="http://www.w3.org/2000/svg"><path d="M19.5 12h-15m15 0l-7-7m7 7l-7 7" stroke="currentColor" stroke-width="2"/></symbol><symbol fill="none" viewBox="0 0 24 24" id="arrow_upward" xmlns="http://www.w3.org/2000/svg"><path d="M12 4.5v15m0-15l-7 7m7-7l7 7" stroke="currentColor" stroke-width="2"/></symbol><symbol fill="none" viewBox="0 0 24 24" id="chevron_left" xmlns="http://www.w3.org/2000/svg"><path d="M14 8l-4 4 4 4" stroke="currentColor" stroke-width="2"/></symbol><symbol fill="none" viewBox="0 0 24 24" id="chevron_right" xmlns="http://www.w3.org/2000/svg"><path d="M10 16l4-4-4-4" stroke="currentColor" stroke-width="2"/></symbol><symbol fill="none" viewBox="0 0 24 24" id="close" xmlns="http://www.w3.org/2000/svg"><path d="M5 5l14 14M19 5L5 19" stroke="currentColor" stroke-width="2"/></symbol><symbol fill="none" viewBox="0 0 18 18" id="copy" xmlns="http://www.w3.org/2000/svg"><path d="M12 .75H3c-.825 0-1.5.675-1.5 1.5v10.5H3V2.25h9V.75zm2.25 3H6c-.825 0-1.5.675-1.5 1.5v10.5c0 .825.675 1.5 1.5 1.5h8.25c.825 0 1.5-.675 1.5-1.5V5.25c0-.825-.675-1.5-1.5-1.5zm0 12H6V5.25h8.25v10.5z" fill="currentColor"/></symbol><symbol fill="none" viewBox="0 0 24 24" id="dd_arrow" xmlns="http://www.w3.org/2000/svg"><path d="M8 10l4 4 4-4" stroke="currentColor" stroke-width="2"/></symbol><symbol fill="none" viewBox="0 0 24 24" id="discord" xmlns="http://www.w3.org/2000/svg"><path fill-rule="evenodd" clip-rule="evenodd" d="M17.36 4c.904 0 1.64.736 1.64 1.648V20l-1.72-1.52-.968-.896-1.024-.952.424 1.48H6.64c-.904 0-1.64-.736-1.64-1.648V5.648C5 4.736 5.736 4 6.64 4h10.72zm-3.088 10.448c1.768-.056 2.448-1.216 2.448-1.216 0-2.576-1.152-4.664-1.152-4.664-1.152-.864-2.248-.84-2.248-.84l-.112.128c1.36.416 1.992 1.016 1.992 1.016a6.521 6.521 0 00-4.024-.752l-.136.016c-.28.024-.96.128-1.816.504-.296.136-.472.232-.472.232s.664-.632 2.104-1.048l-.08-.096s-1.096-.024-2.248.84c0 0-1.152 2.088-1.152 4.664 0 0 .672 1.16 2.44 1.216 0 0 .296-.36.536-.664-1.016-.304-1.4-.944-1.4-.944l.224.136.032.024.031.018.01.004.03.018c.2.112.4.2.585.272.328.128.72.256 1.176.344.6.112 1.304.152 2.072.008.376-.064.76-.176 1.16-.344.28-.104.592-.256.92-.472 0 0-.4.656-1.448.952.24.304.528.648.528.648zm-3.72-3.736c-.456 0-.816.4-.816.888s.368.888.816.888c.456 0 .816-.4.816-.888.008-.488-.36-.888-.816-.888zm2.92 0c-.456 0-.816.4-.816.888s.368.888.816.888c.456 0 .816-.4.816-.888s-.36-.888-.816-.888z" fill="currentColor"/></symbol><symbol fill="none" viewBox="0 0 24 24" id="discourse" xmlns="http://www.w3.org/2000/svg"><path d="M12.076 3C16.998 3 21 7.113 21 11.997c0 4.883-3.996 8.994-8.924 8.994L3 21v-9.158c0-4.88 4.149-8.841 9.076-8.841V3zm.088 3.422a5.541 5.541 0 00-4.751 2.677 5.431 5.431 0 00-.112 5.414L6.3 17.706l3.598-.805a5.562 5.562 0 006.1-1.043A5.435 5.435 0 0017.3 9.86a5.532 5.532 0 00-5.13-3.44h-.005z" fill="currentColor"/></symbol><symbol fill="none" viewBox="0 0 24 24" id="expand_less" xmlns="http://www.w3.org/2000/svg"><path d="M16 14l-4-4-4 4" stroke="currentColor" stroke-width="2"/></symbol><symbol fill="none" viewBox="0 0 24 24" id="expand_more" xmlns="http://www.w3.org/2000/svg"><path d="M8 10l4 4 4-4" stroke="currentColor" stroke-width="2"/></symbol><symbol fill="none" viewBox="0 0 24 24" id="github" xmlns="http://www.w3.org/2000/svg"><path d="M12.202 4A8.203 8.203 0 009.61 19.985c.41.076.542-.178.542-.394v-1.527c-2.282.496-2.757-.968-2.757-.968-.373-.948-.911-1.2-.911-1.2-.744-.51.057-.498.057-.498.823.057 1.257.845 1.257.845.731 1.254 1.918.892 2.386.682.074-.53.286-.892.521-1.097-1.821-.208-3.736-.912-3.736-4.054 0-.896.32-1.627.844-2.201-.084-.207-.365-1.042.08-2.171 0 0 .69-.22 2.257.84a7.867 7.867 0 012.052-.276 7.89 7.89 0 012.055.277c1.566-1.061 2.254-.841 2.254-.841.446 1.13.165 1.964.08 2.17.526.575.844 1.307.844 2.202 0 3.15-1.918 3.845-3.745 4.048.294.254.563.753.563 1.518v2.251c0 .218.131.474.547.394A8.204 8.204 0 0012.202 4z" fill="currentColor"/></symbol><symbol fill="none" viewBox="0 0 28 30" id="info" xmlns="http://www.w3.org/2000/svg"><path d="M13 7h2v2h-2V7zm0 4h2v6h-2v-6zm1-9C8.48 2 4 6.48 4 12s4.48 10 10 10 10-4.48 10-10S19.52 2 14 2zm0 18c-4.41 0-8-3.59-8-8s3.59-8 8-8 8 3.59 8 8-3.59 8-8 8z" fill="currentColor"/></symbol><symbol fill="none" viewBox="0 0 24 24" id="language" xmlns="http://www.w3.org/2000/svg"><path d="M11.623 4.57L4.946 2.215v14.532l6.677-2.16V4.57z" fill="currentColor"/><path d="M11.462 4.563l6.933-2.356v14.532l-6.933-2.16V4.563zM3.214 19.29l8.248-2.75V4.563L3.214 7.31V19.29z" fill="#fff"/><path d="M15.22 19.471l1.17 1.924.616-1.787-1.786-.137zM6.019 8.691c-.044-.043.057.352.197.494.249.25.443.283.547.287.229.01.512-.057.68-.127.162-.07.447-.215.554-.427.023-.045.085-.121.046-.31-.03-.144-.121-.194-.234-.186-.112.007-.452.098-.616.148-.165.05-.503.153-.65.185-.148.032-.473-.014-.524-.064zM10.18 13.408c-.065-.024-1.41-.581-1.6-.672a18.444 18.444 0 00-.718-.31c.507-.782.827-1.372.87-1.462.078-.164.614-1.214.627-1.278.012-.066.027-.308.016-.365-.012-.059-.209.054-.476.144-.268.09-.776.421-.972.462-.197.042-.827.28-1.15.387a30.4 30.4 0 01-1.182.36c-.251.069-.47.074-.61.116 0 0 .018.197.055.256.037.06.17.204.324.244.155.04.41.025.527-.002.116-.027.318-.126.345-.169.028-.043-.014-.178.032-.219.047-.04.66-.184.892-.254.232-.07 1.119-.376 1.239-.36-.038.126-.752 1.539-.981 1.96-.23.422-1.565 2.277-1.85 2.603-.215.249-.738.885-.92 1.028.046.013.37-.015.43-.052.367-.226.979-.988 1.176-1.22a20.83 20.83 0 001.51-2.029c.079.033.722.557.89.673.168.116.83.486.973.547.144.062.695.316.718.23.023-.086-.1-.594-.165-.618z" fill="currentColor"/><path fill-rule="evenodd" clip-rule="evenodd" d="M7.073 20.411c.128.079.25.143.386.207.272.137.58.28.873.387.401.15.802.272 1.203.365.222.05.465.093.701.129.022 0 .66.079.788.079h.644c.25-.022.487-.036.737-.072.2-.029.423-.064.638-.114.157-.036.322-.072.48-.122.15-.043.321-.1.486-.158.107-.035.222-.085.336-.128.093-.043.208-.094.315-.136.13-.058.28-.136.423-.208.114-.057.243-.129.365-.2.093-.05.307-.215.422-.215a.22.22 0 01.215.215c0 .207-.28.272-.408.365-.136.093-.3.164-.444.243-.286.15-.58.28-.859.387-.365.136-.766.264-1.124.35-.136.029-.272.065-.408.086-.072.015-.816.129-1.024.129h-.944c-.25-.021-.516-.05-.766-.086a11.367 11.367 0 01-.68-.129 6.217 6.217 0 01-.523-.136 8.27 8.27 0 01-.837-.286 7.515 7.515 0 01-1.496-.752c-.086-.057-.093-.114-.093-.179 0-.107.078-.207.207-.207.115 0 .344.165.387.186zM11.676 4.535V16.56a.244.244 0 01-.05.108.163.163 0 01-.065.057c-.179.072-8.239 2.777-8.346 2.777-.086 0-.165-.057-.208-.15 0-.007-.007-.014-.007-.029V7.29c.014-.035.021-.085.05-.114.057-.079.158-.093.222-.115.122-.043 8.06-2.705 8.175-2.705.071 0 .229.05.229.179zm-.437 11.846L3.437 18.98V7.47l7.802-2.599v11.51z" fill="currentColor"/><path fill-rule="evenodd" clip-rule="evenodd" d="M18.612 2.229V16.71c-.007.165-.121.236-.229.236-.093 0-.766-.229-.88-.265-.902-.279-1.811-.558-2.706-.837-.2-.065-.408-.129-.601-.193a14.92 14.92 0 01-.53-.165c-.766-.236-1.546-.473-2.312-.73-.029-.007-.1-.108-.1-.13V4.513c.014-.036.028-.078.064-.107.057-.064 2.513-.88 3.479-1.203C15.055 3.11 18.283 2 18.383 2c.13 0 .23.093.23.229zm-.436 14.209l-6.493-2.019v-9.7l6.493-2.204v13.923z" fill="currentColor"/><path d="M20.26 19.472l-8.674-2.764.037-12.035 8.637 2.749v12.05z" fill="currentColor"/><path fill-rule="evenodd" clip-rule="evenodd" d="M15.377 8.107l1.117.339 2.036 7.337-1.148-.348-.412-1.506-2.372-.72-.51 1.228-1.148-.348 2.437-5.982zm.51 1.943l-.85 2.058 1.564.474-.713-2.532z" fill="#fff"/></symbol><symbol viewBox="0 0 18 18" fill="none" id="link" xmlns="http://www.w3.org/2000/svg"><path fill-rule="evenodd" clip-rule="evenodd" d="M16.5 2.375v3.663H15V4.146l-8.651 8.45-1.048-1.074L13.9 3.125h-1.665v-1.5h4.266v.75zM2.25 3.691H1.5v12.684h12.684V9.234h-1.5v5.64H3V5.192h6.04v-1.5H2.25z" fill="currentColor"/></symbol><symbol fill="none" viewBox="0 0 24 24" id="medium" xmlns="http://www.w3.org/2000/svg"><path fill-rule="evenodd" clip-rule="evenodd" d="M12.978 12.015c0 2.404-1.936 4.353-4.324 4.353S4.33 14.42 4.33 12.015c0-2.405 1.936-4.354 4.324-4.354s4.324 1.95 4.324 4.354zm4.743 0c0 2.263-.968 4.098-2.162 4.098s-2.162-1.835-2.162-4.098.968-4.099 2.162-4.099 2.162 1.835 2.162 4.099zm1.18 3.671c.42 0 .76-1.644.76-3.671 0-2.028-.34-3.672-.76-3.672s-.76 1.644-.76 3.672c0 2.027.34 3.671.76 3.671z" fill="currentColor"/></symbol><symbol fill="none" viewBox="0 0 24 24" id="menu" xmlns="http://www.w3.org/2000/svg"><path d="M4 8h16M4 12h16M4 16h16" stroke="currentColor" stroke-width="2"/></symbol><symbol fill="none" viewBox="0 0 24 24" id="metamask" xmlns="http://www.w3.org/2000/svg"><g clip-path="url(#awclip0)" stroke-width=".615" stroke-linecap="round" stroke-linejoin="round"><path d="M22.644 1.108l-9.185 6.821 1.698-4.024 7.487-2.797z" fill="#E2761B" stroke="#E2761B"/><path d="M1.44 1.108l9.11 6.886-1.615-4.09-7.496-2.796zM19.339 16.92l-2.446 3.748 5.233 1.44 1.505-5.105-4.292-.083zM.47 17.003l1.496 5.105 5.234-1.44-2.446-3.748-4.283.083z" fill="#E4761B" stroke="#E4761B"/><path d="M6.904 10.588l-1.459 2.206 5.197.23-.184-5.584-3.554 3.148zM17.179 10.588l-3.6-3.213-.12 5.65 5.188-.231-1.468-2.206zM7.2 20.668l3.12-1.523-2.696-2.105-.425 3.628zM13.764 19.145l3.129 1.523-.434-3.628-2.695 2.105z" fill="#E4761B" stroke="#E4761B"/><path d="M16.893 20.668l-3.13-1.523.25 2.04-.028.858 2.908-1.375zM7.201 20.668l2.908 1.375-.019-.858.231-2.04-3.12 1.523z" fill="#D7C1B3" stroke="#D7C1B3"/><path d="M10.154 15.693l-2.603-.767 1.837-.84.766 1.607zM13.93 15.693l.766-1.607 1.846.84-2.612.767z" fill="#233447" stroke="#233447"/><path d="M7.2 20.668l.443-3.748-2.89.083L7.2 20.668zM16.45 16.92l.442 3.748 2.446-3.665-2.889-.083zM18.647 12.794l-5.188.23.48 2.668.766-1.606 1.846.84 2.096-2.132zM7.55 14.926l1.846-.84.757 1.606.49-2.667-5.198-.231 2.105 2.132z" fill="#CD6116" stroke="#CD6116"/><path d="M5.447 12.794l2.179 4.246-.074-2.114-2.105-2.132zM16.551 14.926l-.092 2.114 2.188-4.246-2.096 2.132zM10.643 13.025l-.489 2.668.61 3.147.138-4.145-.258-1.67zM13.46 13.025l-.25 1.661.112 4.154.618-3.147-.48-2.668z" fill="#E4751F" stroke="#E4751F"/><path d="M13.939 15.692l-.619 3.148.443.305 2.696-2.105.092-2.114-2.612.766zM7.55 14.926l.075 2.114 2.695 2.105.443-.305-.61-3.148-2.602-.766z" fill="#F6851B" stroke="#F6851B"/><path d="M13.986 22.043l.027-.858-.23-.203h-3.48l-.213.203.019.858L7.2 20.668l1.016.83 2.058 1.431h3.535l2.068-1.43 1.015-.831-2.907 1.375z" fill="#C0AD9E" stroke="#C0AD9E"/><path d="M13.764 19.145l-.443-.305h-2.557l-.443.305-.231 2.04.212-.203h3.48l.23.203-.248-2.04z" fill="#161616" stroke="#161616"/><path d="M23.031 8.372l.785-3.766-1.172-3.498-8.88 6.59 3.415 2.89L22.007 12l1.07-1.246-.461-.332.738-.674-.572-.443.739-.563-.49-.37zM.277 4.606l.785 3.766-.499.37.739.563-.563.443.738.674-.461.332L2.077 12l4.828-1.412 3.415-2.89-8.88-6.59L.277 4.606z" fill="#763D16" stroke="#763D16"/><path d="M22.007 12l-4.828-1.412 1.468 2.206-2.188 4.246 2.88-.037h4.292L22.007 12zM6.905 10.588L2.077 12 .47 17.003h4.283l2.87.037-2.178-4.246 1.459-2.206zM13.459 13.025l.304-5.326 1.403-3.794h-6.23l1.384 3.794.323 5.326.111 1.68.01 4.135h2.556l.019-4.135.12-1.68z" fill="#F6851B" stroke="#F6851B"/></g><defs><clipPath id="awclip0"><path fill="#fff" d="M0 0h24v24H0z"/></clipPath></defs></symbol><symbol fill="none" viewBox="0 0 48 48" id="minus" xmlns="http://www.w3.org/2000/svg"><path d="M38 26H10v-4h28v4z" fill="currentColor"/></symbol><symbol fill="none" viewBox="0 0 24 24" id="nave" xmlns="http://www.w3.org/2000/svg"><mask id="aya" style="mask-type:alpha" maskUnits="userSpaceOnUse" x="0" y="0" width="25" height="24"><path fill="currentColor" d="M0 0h24v24H0z"/></mask><g mask="url(#aya)"><path d="M14.54 12.493L9.324 5H5v14h4.53v-7.493L14.745 19h4.323V5H14.54v7.493z" fill="currentColor"/></g></symbol><symbol fill="none" viewBox="0 0 25 24" id="play" xmlns="http://www.w3.org/2000/svg"><circle cx="12.499" cy="12.001" r="12" fill="currentColor"/><path d="M17.499 12l-7.5 4.33V7.67l7.5 4.33z" fill="#fff"/></symbol><symbol fill="none" viewBox="0 0 48 48" id="plus" xmlns="http://www.w3.org/2000/svg"><path d="M38 26H26v12h-4V26H10v-4h12V10h4v12h12v4z" fill="currentColor"/></symbol><symbol fill="none" viewBox="0 0 18 18" id="qr" xmlns="http://www.w3.org/2000/svg"><path d="M2 8h6V2H2v6zm1.5-4.5h3v3h-3v-3zM2 15.5h6v-6H2v6zM3.5 11h3v3h-3v-3zM9.5 2v6h6V2h-6zM14 6.5h-3v-3h3v3zM15.5 14H14v1.5h1.5V14zM11 9.5H9.5V11H11V9.5zM12.5 11H11v1.5h1.5V11zM11 12.5H9.5V14H11v-1.5zM12.5 14H11v1.5h1.5V14zM14 12.5h-1.5V14H14v-1.5zM14 9.5h-1.5V11H14V9.5zM15.5 11H14v1.5h1.5V11z" fill="currentColor"/></symbol><symbol fill="none" viewBox="0 0 24 24" id="reddit" xmlns="http://www.w3.org/2000/svg"><path d="M13.885 15.07c-.403.404-1.267.548-1.883.548-.617 0-1.48-.144-1.883-.547a.242.242 0 00-.343 0 .242.242 0 000 .344c.639.639 1.866.689 2.226.689.36 0 1.586-.05 2.227-.69a.246.246 0 000-.343.242.242 0 00-.344 0zM10.875 12.938A.94.94 0 009.937 12a.94.94 0 00-.938.938.94.94 0 00.938.938.94.94 0 00.938-.938z" fill="currentColor"/><path d="M12 3a9.001 9.001 0 000 18 9.001 9.001 0 000-18zm5.222 10.2c.02.13.03.262.03.395 0 2.02-2.35 3.656-5.25 3.656s-5.25-1.637-5.25-3.656c0-.135.01-.268.03-.398a1.312 1.312 0 111.443-2.144c.911-.657 2.171-1.076 3.573-1.112 0-.018.656-3.14.656-3.14a.23.23 0 01.277-.18l2.181.465a.932.932 0 01.837-.524.937.937 0 110 1.876.934.934 0 01-.932-.893l-1.953-.416-.598 2.814c1.377.048 2.614.466 3.51 1.114A1.311 1.311 0 0118 12c0 .536-.322.995-.777 1.2z" fill="currentColor"/><path d="M14.063 12a.94.94 0 00-.938.938.94.94 0 00.938.938.94.94 0 00.938-.938.94.94 0 00-.938-.938z" fill="currentColor"/></symbol><symbol fill="none" viewBox="0 0 18 18" id="scan_qr" xmlns="http://www.w3.org/2000/svg"><path d="M7.125 4.875v2.25h-2.25v-2.25h2.25zM8.25 3.75h-4.5v4.5h4.5v-4.5zm-1.125 7.125v2.25h-2.25v-2.25h2.25zM8.25 9.75h-4.5v4.5h4.5v-4.5zm4.875-4.875v2.25h-2.25v-2.25h2.25zM14.25 3.75h-4.5v4.5h4.5v-4.5zm-4.5 6h1.125v1.125H9.75V9.75zm1.125 1.125H12V12h-1.125v-1.125zM12 9.75h1.125v1.125H12V9.75zM9.75 12h1.125v1.125H9.75V12zm1.125 1.125H12v1.125h-1.125v-1.125zM12 12h1.125v1.125H12V12zm1.125-1.125h1.125V12h-1.125v-1.125zm0 2.25h1.125v1.125h-1.125v-1.125zM16.5 5.25H15V3h-2.25V1.5h3.75v3.75zm0 11.25v-3.75H15V15h-2.25v1.5h3.75zm-15 0h3.75V15H3v-2.25H1.5v3.75zm0-15v3.75H3V3h2.25V1.5H1.5z" fill="currentColor"/></symbol><symbol fill="none" viewBox="0 0 24 24" id="search" xmlns="http://www.w3.org/2000/svg"><path d="M15.5 14h-.79l-.28-.27a6.5 6.5 0 001.48-5.34c-.47-2.78-2.79-5-5.59-5.34a6.505 6.505 0 00-7.27 7.27c.34 2.8 2.56 5.12 5.34 5.59a6.5 6.5 0 005.34-1.48l.27.28v.79l4.25 4.25c.41.41 1.08.41 1.49 0 .41-.41.41-1.08 0-1.49L15.5 14zm-6 0C7.01 14 5 11.99 5 9.5S7.01 5 9.5 5 14 7.01 14 9.5 11.99 14 9.5 14z" fill="currentColor"/></symbol><symbol fill="none" viewBox="0 0 24 24" id="share" xmlns="http://www.w3.org/2000/svg"><circle cx="18" cy="5" r="3" stroke="currentColor" stroke-width="2"/><circle cx="18" cy="18" r="3" stroke="currentColor" stroke-width="2"/><circle cx="6" cy="12" r="3" stroke="currentColor" stroke-width="2"/><path d="M15.842 6.395L8 10.922M15.842 17.61L8 13.083" stroke="currentColor" stroke-width="2"/></symbol><symbol fill="none" viewBox="0 0 24 24" id="sort" xmlns="http://www.w3.org/2000/svg"><path fill-rule="evenodd" clip-rule="evenodd" d="M12.707 8.293l-3-3L9 4.586l-.707.707-3 3 1.414 1.414L8 8.414V18h2V8.414l1.293 1.293 1.414-1.414zm1.586 10.414l-3-3 1.414-1.414L14 15.586V6h2v9.586l1.293-1.293 1.414 1.414-3 3-.707.707-.707-.707z" fill="currentColor"/></symbol><symbol fill="none" viewBox="0 0 24 24" id="talk" xmlns="http://www.w3.org/2000/svg"><path d="M12.002 3c-5 0-8.014 3.082-8.781 6.137-.797 3.167.594 6.202 3.64 8.016-.677 2.456-1.087 3.281-.44 3.723.726.496 1.772-.53 3.518-1.87l.718-.55c2.812.364 5.675-.445 7.703-2.185 1.703-1.46 2.64-3.414 2.64-5.5C21 6.486 16.964 3 12.002 3zm5.627 12.417c-1.84 1.58-4.473 2.287-7.04 1.893-.36-.058-1.944 1.33-3.234 2.228.146-.551.43-1.479.707-2.514a.561.561 0 00-.277-.64C4.39 14.56 3.764 11.586 4.31 9.41c.663-2.63 3.298-5.286 7.692-5.286 4.342 0 7.874 2.982 7.874 6.646 0 1.753-.798 3.403-2.247 4.646z" fill="currentColor"/><path d="M7.877 8.812h-2.25c-.744 0-.744 1.125 0 1.125h.563v3.187c0 .744 1.125.745 1.125 0V9.937h.562c.744 0 .745-1.125 0-1.125zM10.649 9.166c0-.002-.003-.003-.004-.005-.184-.447-.844-.468-1.037 0l-.003.005-1.5 3.75a.562.562 0 00.314.73c.718.29.846-.728 1.039-1.084h1.339l.308.771c.275.69 1.323.275 1.044-.418l-1.5-3.75zm-.741 2.27l.219-.548.219.549h-.438zM14.627 12.562h-.938V9.374c0-.744-1.125-.744-1.125 0v3.75c0 .31.252.562.563.562h1.5c.743 0 .744-1.124 0-1.124zM16.689 10.266v-.892c0-.744-1.125-.744-1.125 0v3.75c0 .744 1.125.745 1.125 0v-1.102c1.203 1.31 1.242 1.665 1.687 1.665.472 0 .743-.56.427-.93l-1.393-1.622 1.367-1.367.005-.006.003-.002c.51-.53-.28-1.31-.803-.788l-1.293 1.294z" fill="currentColor"/></symbol><symbol fill="none" viewBox="0 0 24 24" id="telegram" xmlns="http://www.w3.org/2000/svg"><path fill-rule="evenodd" clip-rule="evenodd" d="M17.107 19.823c.258.183.59.228.886.116a.928.928 0 00.58-.672C19.266 16 20.952 7.731 21.586 4.76a.625.625 0 00-.208-.607.64.64 0 00-.638-.112C17.387 5.282 7.056 9.158 2.834 10.72a.661.661 0 00-.434.64c.01.283.2.528.475.61 1.893.567 4.379 1.355 4.379 1.355s1.161 3.508 1.767 5.292a.7.7 0 00.482.46c.23.06.477-.003.65-.165l2.476-2.338s2.858 2.095 4.478 3.25zM8.3 12.882l1.344 4.43.298-2.806 8.148-7.348a.222.222 0 00.026-.302.227.227 0 00-.3-.051l-9.516 6.077z" fill="currentColor"/></symbol><symbol fill="none" viewBox="0 0 24 24" id="twiter" xmlns="http://www.w3.org/2000/svg"><path d="M21.688 5.894a8.065 8.065 0 01-2.32.636 4.046 4.046 0 001.776-2.235 8.092 8.092 0 01-2.565.98A4.033 4.033 0 0015.631 4c-2.608 0-4.524 2.433-3.935 4.959a11.467 11.467 0 01-8.325-4.22 4.045 4.045 0 001.25 5.393 4.023 4.023 0 01-1.83-.505c-.044 1.87 1.298 3.622 3.24 4.011a4.048 4.048 0 01-1.824.07 4.042 4.042 0 003.773 2.804A8.122 8.122 0 012 18.185 11.435 11.435 0 008.192 20c7.5 0 11.737-6.334 11.48-12.015a8.224 8.224 0 002.016-2.09z" fill="currentColor"/></symbol><symbol fill="none" viewBox="0 0 24 24" id="twitter" xmlns="http://www.w3.org/2000/svg"><path d="M21.688 5.894a8.065 8.065 0 01-2.32.636 4.046 4.046 0 001.776-2.235 8.092 8.092 0 01-2.565.98A4.033 4.033 0 0015.631 4c-2.608 0-4.524 2.433-3.935 4.959a11.467 11.467 0 01-8.325-4.22 4.045 4.045 0 001.25 5.393 4.023 4.023 0 01-1.83-.505c-.044 1.87 1.298 3.622 3.24 4.011a4.048 4.048 0 01-1.824.07 4.042 4.042 0 003.773 2.804A8.122 8.122 0 012 18.185 11.435 11.435 0 008.192 20c7.5 0 11.737-6.334 11.48-12.015a8.224 8.224 0 002.016-2.09z" fill="currentColor"/></symbol><symbol fill="none" viewBox="0 0 24 24" id="union" xmlns="http://www.w3.org/2000/svg"><path fill-rule="evenodd" clip-rule="evenodd" d="M12.978 12.015c0 2.404-1.936 4.353-4.324 4.353S4.33 14.42 4.33 12.015c0-2.405 1.936-4.354 4.324-4.354s4.324 1.95 4.324 4.354zm4.743 0c0 2.263-.968 4.098-2.162 4.098s-2.162-1.835-2.162-4.098.968-4.099 2.162-4.099 2.162 1.835 2.162 4.099zm1.18 3.671c.42 0 .76-1.644.76-3.671 0-2.028-.34-3.672-.76-3.672s-.76 1.644-.76 3.672c0 2.027.34 3.671.76 3.671z" fill="currentColor"/></symbol><symbol fill="none" viewBox="0 0 19 18" id="wallet" xmlns="http://www.w3.org/2000/svg"><path d="M7 13V5a2 2 0 012-2h9V2c0-1.1-.9-2-2-2H2a2 2 0 00-2 2v14a2 2 0 002 2h14c1.1 0 2-.9 2-2v-1H9a2 2 0 01-2-2zm3-8c-.55 0-1 .45-1 1v6c0 .55.45 1 1 1h8c.55 0 1-.45 1-1V6c0-.55-.45-1-1-1h-8zm3 5.5c-.83 0-1.5-.67-1.5-1.5s.67-1.5 1.5-1.5 1.5.67 1.5 1.5-.67 1.5-1.5 1.5z" fill="currentColor"/></symbol><symbol fill="none" viewBox="0 0 25 24" id="wallet_connect" xmlns="http://www.w3.org/2000/svg"><g clip-path="url(#bnclip0)"><path d="M5.413 7.506c3.914-3.832 10.26-3.832 14.174 0l.47.461a.483.483 0 010 .694l-1.61 1.578a.254.254 0 01-.355 0l-.648-.635c-2.73-2.673-7.157-2.673-9.888 0l-.694.68a.254.254 0 01-.354 0L4.896 8.706a.483.483 0 010-.694l.517-.506zm17.506 3.263l1.434 1.404a.483.483 0 010 .694l-6.466 6.33a.509.509 0 01-.709 0l-4.59-4.493a.127.127 0 00-.176 0l-4.59 4.494a.509.509 0 01-.709 0L.647 12.867a.483.483 0 010-.694l1.434-1.404a.509.509 0 01.709 0l4.59 4.493a.127.127 0 00.176 0l4.59-4.493a.509.509 0 01.708 0l4.59 4.493a.127.127 0 00.177 0l4.59-4.493a.509.509 0 01.708 0z" fill="#3B99FC"/></g><defs><clipPath id="bnclip0"><path fill="#fff" transform="translate(.5)" d="M0 0h24v24H0z"/></clipPath></defs></symbol><symbol fill="none" viewBox="0 0 24 24" id="wechat" xmlns="http://www.w3.org/2000/svg"><path fill-rule="evenodd" clip-rule="evenodd" d="M19.127 17.921C20.27 17.092 21 15.868 21 14.506c0-2.495-2.428-4.518-5.422-4.518-2.994 0-5.421 2.023-5.421 4.518 0 2.495 2.427 4.517 5.421 4.517.619 0 1.216-.087 1.77-.247l.16-.024c.104 0 .198.032.287.083l1.188.686.104.034c.1 0 .18-.081.18-.181l-.029-.132-.244-.912-.019-.115a.36.36 0 01.151-.294zM9.507 5C5.912 5 3 7.427 3 10.422c0 1.633.876 3.104 2.248 4.098.11.078.182.207.182.353l-.022.138-.294 1.094-.035.158c0 .12.098.217.217.217l.126-.04 1.424-.823a.68.68 0 01.345-.1l.191.029a7.691 7.691 0 002.124.298l.357-.01a4.19 4.19 0 01-.218-1.328c0-2.73 2.657-4.944 5.933-4.944l.354.008C15.441 6.98 12.752 5 9.505 5zm4.264 8.783a.723.723 0 110-1.445.723.723 0 010 1.445zm3.615 0a.723.723 0 110-1.446.723.723 0 010 1.446zM7.337 9.554a.867.867 0 110-1.734.867.867 0 010 1.734zm4.338 0a.867.867 0 110-1.734.867.867 0 010 1.734z" fill="currentColor"/></symbol><symbol fill="none" viewBox="0 0 24 24" id="weibo" xmlns="http://www.w3.org/2000/svg"><path d="M20.983 9.253c.077.987-.093 2.169-.755 2.227-1.081.095-.517-1.076-.503-1.781.04-2.044-1.734-3.464-3.472-3.464-.492 0-1.636.329-1.46-.693.08-.45.468-.444.856-.495 2.922-.382 5.128 1.594 5.334 4.206zM16.203 11.628c1.256.676 2.765 1.012 2.515 3.018-.46 3.697-8.29 6.18-13.18 3.463-1.342-.745-2.73-1.836-2.516-4.008.184-1.87 1.462-3.318 2.717-4.551C6.936 8.372 8.198 7.45 9.914 7.027c1.863-.46 2.414 1.066 1.912 2.572 1.08-.071 3.366-1.255 4.377-.099.445.51.275 1.423 0 2.128zm-1.358 4.75c.402-.449.807-1.133.804-1.93-.007-3.296-5.726-4.031-8.854-2.226-3.56 2.055-2.057 5.748 2.315 6.036 2.316.153 4.634-.651 5.735-1.88z" fill="currentColor"/><path d="M17.964 10.688c-.733.048-.46-.493-.503-1.138-.028-.396-.363-.855-.654-.99-.573-.264-1.46.192-1.46-.593 0-.583.515-.523.806-.544 2.667-.2 2.832 3.198 1.81 3.265zM12.632 14.201c1.071 3.186-4.513 4.667-5.535 1.93-.683-1.83.958-3.287 2.667-3.464 1.458-.15 2.546.582 2.868 1.534zm-2.567.545c.227.387.75.108.704-.198-.054-.355-.708-.303-.704.198zm-.905 1.682c.939-.22 1.065-1.96-.353-1.633-1.19.273-.96 1.94.353 1.633z" fill="currentColor"/></symbol><symbol fill="none" viewBox="0 0 24 24" id="youtube"><path d="M21.277 7.19c-.215-.862-.847-1.54-1.65-1.771C18.17 5 12.334 5 12.334 5s-5.837 0-7.293.419c-.803.23-1.436.91-1.65 1.772C3 8.753 3 12.014 3 12.014s0 3.26.39 4.824c.214.862.847 1.513 1.65 1.743C6.497 19 12.334 19 12.334 19s5.837 0 7.293-.419c.803-.23 1.435-.881 1.65-1.743.39-1.563.39-4.824.39-4.824s0-3.26-.39-4.823zm-10.852 7.785V9.054l4.878 2.96-4.878 2.96z" fill="currentColor"/></symbol></svg>